<mxfile host="app.diagrams.net" agent="Mozilla/5.0 (Windows NT 10.0; Win64; x64) AppleWebKit/537.36 (KHTML, like Gecko) Chrome/136.0.0.0 Safari/537.36" version="24.7.17">
  <diagram name="Página-1" id="P94S--a97SeJAm7Uy6kt">
    <mxGraphModel dx="699" dy="484" grid="1" gridSize="10" guides="1" tooltips="1" connect="1" arrows="1" fold="1" page="1" pageScale="1" pageWidth="1169" pageHeight="827" math="0" shadow="0">
      <root>
        <mxCell id="0" />
        <mxCell id="1" parent="0" />
        <mxCell id="4PJ2NSrsttbjsCVDPAJp-34" style="edgeStyle=orthogonalEdgeStyle;rounded=0;orthogonalLoop=1;jettySize=auto;html=1;exitX=1;exitY=0.5;exitDx=0;exitDy=0;entryX=0;entryY=0.5;entryDx=0;entryDy=0;endArrow=none;endFill=0;" edge="1" parent="1" source="4PJ2NSrsttbjsCVDPAJp-1" target="4PJ2NSrsttbjsCVDPAJp-33">
          <mxGeometry relative="1" as="geometry">
            <Array as="points">
              <mxPoint x="250" y="470" />
              <mxPoint x="250" y="470" />
            </Array>
          </mxGeometry>
        </mxCell>
        <mxCell id="4PJ2NSrsttbjsCVDPAJp-41" style="edgeStyle=orthogonalEdgeStyle;rounded=0;orthogonalLoop=1;jettySize=auto;html=1;exitX=0.5;exitY=0;exitDx=0;exitDy=0;entryX=0.5;entryY=1;entryDx=0;entryDy=0;endArrow=none;endFill=0;" edge="1" parent="1" source="4PJ2NSrsttbjsCVDPAJp-1" target="4PJ2NSrsttbjsCVDPAJp-37">
          <mxGeometry relative="1" as="geometry" />
        </mxCell>
        <mxCell id="4PJ2NSrsttbjsCVDPAJp-1" value="Libro" style="whiteSpace=wrap;html=1;align=center;" vertex="1" parent="1">
          <mxGeometry x="140" y="450" width="100" height="40" as="geometry" />
        </mxCell>
        <mxCell id="4PJ2NSrsttbjsCVDPAJp-13" style="edgeStyle=orthogonalEdgeStyle;rounded=0;orthogonalLoop=1;jettySize=auto;html=1;entryX=0;entryY=0.5;entryDx=0;entryDy=0;endArrow=none;endFill=0;" edge="1" parent="1" source="4PJ2NSrsttbjsCVDPAJp-2" target="4PJ2NSrsttbjsCVDPAJp-8">
          <mxGeometry relative="1" as="geometry" />
        </mxCell>
        <mxCell id="4PJ2NSrsttbjsCVDPAJp-16" style="edgeStyle=orthogonalEdgeStyle;rounded=0;orthogonalLoop=1;jettySize=auto;html=1;entryX=0.5;entryY=0;entryDx=0;entryDy=0;endArrow=none;endFill=0;" edge="1" parent="1" target="4PJ2NSrsttbjsCVDPAJp-15">
          <mxGeometry relative="1" as="geometry">
            <mxPoint x="240" y="140" as="sourcePoint" />
            <mxPoint x="150" y="205" as="targetPoint" />
            <Array as="points">
              <mxPoint x="200" y="140" />
            </Array>
          </mxGeometry>
        </mxCell>
        <mxCell id="4PJ2NSrsttbjsCVDPAJp-2" value="Cliente" style="whiteSpace=wrap;html=1;align=center;" vertex="1" parent="1">
          <mxGeometry x="240" y="125" width="100" height="40" as="geometry" />
        </mxCell>
        <mxCell id="4PJ2NSrsttbjsCVDPAJp-6" style="edgeStyle=orthogonalEdgeStyle;rounded=0;orthogonalLoop=1;jettySize=auto;html=1;" edge="1" parent="1" source="4PJ2NSrsttbjsCVDPAJp-3" target="4PJ2NSrsttbjsCVDPAJp-5">
          <mxGeometry relative="1" as="geometry" />
        </mxCell>
        <mxCell id="4PJ2NSrsttbjsCVDPAJp-7" style="edgeStyle=orthogonalEdgeStyle;rounded=0;orthogonalLoop=1;jettySize=auto;html=1;entryX=0.5;entryY=0;entryDx=0;entryDy=0;" edge="1" parent="1" source="4PJ2NSrsttbjsCVDPAJp-3" target="4PJ2NSrsttbjsCVDPAJp-2">
          <mxGeometry relative="1" as="geometry" />
        </mxCell>
        <mxCell id="4PJ2NSrsttbjsCVDPAJp-19" style="edgeStyle=orthogonalEdgeStyle;rounded=0;orthogonalLoop=1;jettySize=auto;html=1;entryX=0;entryY=0.5;entryDx=0;entryDy=0;endArrow=none;endFill=0;" edge="1" parent="1" source="4PJ2NSrsttbjsCVDPAJp-3" target="4PJ2NSrsttbjsCVDPAJp-18">
          <mxGeometry relative="1" as="geometry" />
        </mxCell>
        <mxCell id="4PJ2NSrsttbjsCVDPAJp-3" value="Usuario" style="whiteSpace=wrap;html=1;align=center;" vertex="1" parent="1">
          <mxGeometry x="310" y="35" width="100" height="40" as="geometry" />
        </mxCell>
        <mxCell id="4PJ2NSrsttbjsCVDPAJp-12" style="edgeStyle=orthogonalEdgeStyle;rounded=0;orthogonalLoop=1;jettySize=auto;html=1;entryX=1;entryY=0.5;entryDx=0;entryDy=0;endArrow=none;endFill=0;" edge="1" parent="1" source="4PJ2NSrsttbjsCVDPAJp-5" target="4PJ2NSrsttbjsCVDPAJp-8">
          <mxGeometry relative="1" as="geometry" />
        </mxCell>
        <mxCell id="4PJ2NSrsttbjsCVDPAJp-22" style="edgeStyle=orthogonalEdgeStyle;rounded=0;orthogonalLoop=1;jettySize=auto;html=1;exitX=1;exitY=0.5;exitDx=0;exitDy=0;entryX=0;entryY=0.5;entryDx=0;entryDy=0;endArrow=none;endFill=0;" edge="1" parent="1" source="4PJ2NSrsttbjsCVDPAJp-5" target="4PJ2NSrsttbjsCVDPAJp-21">
          <mxGeometry relative="1" as="geometry" />
        </mxCell>
        <mxCell id="4PJ2NSrsttbjsCVDPAJp-5" value="Personal" style="whiteSpace=wrap;html=1;align=center;" vertex="1" parent="1">
          <mxGeometry x="380" y="125" width="100" height="40" as="geometry" />
        </mxCell>
        <mxCell id="4PJ2NSrsttbjsCVDPAJp-25" style="edgeStyle=orthogonalEdgeStyle;rounded=0;orthogonalLoop=1;jettySize=auto;html=1;exitX=1;exitY=1;exitDx=0;exitDy=0;entryX=0;entryY=0.5;entryDx=0;entryDy=0;endArrow=none;endFill=0;" edge="1" parent="1" source="4PJ2NSrsttbjsCVDPAJp-8" target="4PJ2NSrsttbjsCVDPAJp-24">
          <mxGeometry relative="1" as="geometry" />
        </mxCell>
        <mxCell id="4PJ2NSrsttbjsCVDPAJp-28" style="edgeStyle=orthogonalEdgeStyle;rounded=0;orthogonalLoop=1;jettySize=auto;html=1;exitX=0.5;exitY=1;exitDx=0;exitDy=0;entryX=0.5;entryY=0;entryDx=0;entryDy=0;endArrow=none;endFill=0;" edge="1" parent="1" source="4PJ2NSrsttbjsCVDPAJp-8" target="4PJ2NSrsttbjsCVDPAJp-27">
          <mxGeometry relative="1" as="geometry" />
        </mxCell>
        <mxCell id="4PJ2NSrsttbjsCVDPAJp-8" value="Prestamo" style="shape=rhombus;perimeter=rhombusPerimeter;whiteSpace=wrap;html=1;align=center;" vertex="1" parent="1">
          <mxGeometry x="300" y="220" width="120" height="60" as="geometry" />
        </mxCell>
        <mxCell id="4PJ2NSrsttbjsCVDPAJp-29" style="edgeStyle=orthogonalEdgeStyle;rounded=0;orthogonalLoop=1;jettySize=auto;html=1;exitX=0.5;exitY=1;exitDx=0;exitDy=0;entryX=0;entryY=0.5;entryDx=0;entryDy=0;endArrow=none;endFill=0;" edge="1" parent="1" source="4PJ2NSrsttbjsCVDPAJp-15" target="4PJ2NSrsttbjsCVDPAJp-27">
          <mxGeometry relative="1" as="geometry" />
        </mxCell>
        <mxCell id="4PJ2NSrsttbjsCVDPAJp-42" style="edgeStyle=orthogonalEdgeStyle;rounded=0;orthogonalLoop=1;jettySize=auto;html=1;entryX=0.5;entryY=1;entryDx=0;entryDy=0;endArrow=none;endFill=0;" edge="1" parent="1" source="4PJ2NSrsttbjsCVDPAJp-15" target="4PJ2NSrsttbjsCVDPAJp-35">
          <mxGeometry relative="1" as="geometry" />
        </mxCell>
        <mxCell id="4PJ2NSrsttbjsCVDPAJp-15" value="Reserva" style="shape=rhombus;perimeter=rhombusPerimeter;whiteSpace=wrap;html=1;align=center;" vertex="1" parent="1">
          <mxGeometry x="140" y="230" width="120" height="60" as="geometry" />
        </mxCell>
        <mxCell id="4PJ2NSrsttbjsCVDPAJp-18" value="&lt;u&gt;id&lt;/u&gt;&lt;div&gt;correo&lt;/div&gt;&lt;div&gt;contraseña&lt;/div&gt;&lt;div&gt;rol&lt;/div&gt;" style="ellipse;whiteSpace=wrap;html=1;align=center;" vertex="1" parent="1">
          <mxGeometry x="470" y="20" width="100" height="70" as="geometry" />
        </mxCell>
        <mxCell id="4PJ2NSrsttbjsCVDPAJp-23" style="edgeStyle=orthogonalEdgeStyle;rounded=0;orthogonalLoop=1;jettySize=auto;html=1;exitX=1;exitY=1;exitDx=0;exitDy=0;entryX=0;entryY=0;entryDx=0;entryDy=0;endArrow=none;endFill=0;" edge="1" parent="1" source="4PJ2NSrsttbjsCVDPAJp-20" target="4PJ2NSrsttbjsCVDPAJp-2">
          <mxGeometry relative="1" as="geometry" />
        </mxCell>
        <mxCell id="4PJ2NSrsttbjsCVDPAJp-20" value="&lt;u&gt;dni&lt;/u&gt;&lt;div&gt;dniType&lt;/div&gt;&lt;div&gt;nombre&lt;/div&gt;&lt;div&gt;apellido&lt;/div&gt;&lt;div&gt;direccion&lt;/div&gt;&lt;div&gt;telefono&lt;/div&gt;" style="ellipse;whiteSpace=wrap;html=1;align=center;" vertex="1" parent="1">
          <mxGeometry x="120" y="25" width="100" height="100" as="geometry" />
        </mxCell>
        <mxCell id="4PJ2NSrsttbjsCVDPAJp-21" value="nombre&lt;div&gt;apellido&lt;/div&gt;&lt;div&gt;telefono&lt;/div&gt;&lt;div&gt;email_personal&lt;/div&gt;&lt;div&gt;&lt;u&gt;id_empleado&lt;/u&gt;&lt;/div&gt;" style="ellipse;whiteSpace=wrap;html=1;align=center;" vertex="1" parent="1">
          <mxGeometry x="540" y="100" width="110" height="100" as="geometry" />
        </mxCell>
        <mxCell id="4PJ2NSrsttbjsCVDPAJp-24" value="&lt;u&gt;dni&lt;/u&gt;&lt;div&gt;&lt;u&gt;id_empleado&lt;/u&gt;&lt;/div&gt;&lt;div&gt;&lt;u&gt;id_copia&lt;/u&gt;&lt;/div&gt;&lt;div&gt;fecha_ini&lt;/div&gt;&lt;div&gt;fecha_fin&lt;/div&gt;&lt;div&gt;dias_atraso&lt;/div&gt;&lt;div&gt;estado&lt;/div&gt;&lt;div&gt;precioxDiaAtraso&lt;/div&gt;" style="ellipse;whiteSpace=wrap;html=1;align=center;" vertex="1" parent="1">
          <mxGeometry x="460" y="220" width="140" height="150" as="geometry" />
        </mxCell>
        <mxCell id="4PJ2NSrsttbjsCVDPAJp-32" style="edgeStyle=orthogonalEdgeStyle;rounded=0;orthogonalLoop=1;jettySize=auto;html=1;exitX=1;exitY=0.5;exitDx=0;exitDy=0;entryX=0;entryY=0.5;entryDx=0;entryDy=0;endArrow=none;endFill=0;" edge="1" parent="1" source="4PJ2NSrsttbjsCVDPAJp-27" target="4PJ2NSrsttbjsCVDPAJp-31">
          <mxGeometry relative="1" as="geometry" />
        </mxCell>
        <mxCell id="4PJ2NSrsttbjsCVDPAJp-27" value="copia_libro" style="shape=ext;margin=3;double=1;whiteSpace=wrap;html=1;align=center;" vertex="1" parent="1">
          <mxGeometry x="220" y="330" width="100" height="40" as="geometry" />
        </mxCell>
        <mxCell id="4PJ2NSrsttbjsCVDPAJp-31" value="&lt;u&gt;id_copia&lt;/u&gt;&lt;div&gt;isbn&lt;/div&gt;&lt;div&gt;estado&lt;/div&gt;" style="ellipse;whiteSpace=wrap;html=1;align=center;" vertex="1" parent="1">
          <mxGeometry x="360" y="344" width="100" height="70" as="geometry" />
        </mxCell>
        <mxCell id="4PJ2NSrsttbjsCVDPAJp-33" value="&lt;u&gt;isbn&lt;/u&gt;&lt;div&gt;titulo&lt;/div&gt;&lt;div&gt;autor&lt;/div&gt;&lt;div&gt;genero&lt;/div&gt;&lt;div&gt;descripcion&lt;/div&gt;&lt;div&gt;calificacion&lt;/div&gt;" style="ellipse;whiteSpace=wrap;html=1;align=center;" vertex="1" parent="1">
          <mxGeometry x="290" y="420" width="110" height="100" as="geometry" />
        </mxCell>
        <mxCell id="4PJ2NSrsttbjsCVDPAJp-35" value="&lt;u&gt;dni&lt;/u&gt;&lt;div&gt;&lt;u&gt;id_copia&lt;/u&gt;&lt;/div&gt;&lt;div&gt;&lt;u&gt;fecha_res&lt;/u&gt;&lt;/div&gt;&lt;div&gt;&lt;u&gt;fin_res&lt;/u&gt;&lt;/div&gt;&lt;div&gt;&lt;u&gt;estado&lt;/u&gt;&lt;/div&gt;" style="ellipse;whiteSpace=wrap;html=1;align=center;" vertex="1" parent="1">
          <mxGeometry x="30" y="145" width="100" height="85" as="geometry" />
        </mxCell>
        <mxCell id="4PJ2NSrsttbjsCVDPAJp-38" style="edgeStyle=orthogonalEdgeStyle;rounded=0;orthogonalLoop=1;jettySize=auto;html=1;exitX=0.5;exitY=0;exitDx=0;exitDy=0;entryX=0.25;entryY=1;entryDx=0;entryDy=0;shape=link;" edge="1" parent="1" source="4PJ2NSrsttbjsCVDPAJp-37" target="4PJ2NSrsttbjsCVDPAJp-27">
          <mxGeometry relative="1" as="geometry" />
        </mxCell>
        <mxCell id="4PJ2NSrsttbjsCVDPAJp-37" value="" style="shape=rhombus;double=1;perimeter=rhombusPerimeter;whiteSpace=wrap;html=1;align=center;" vertex="1" parent="1">
          <mxGeometry x="230" y="388" width="30" height="26" as="geometry" />
        </mxCell>
      </root>
    </mxGraphModel>
  </diagram>
</mxfile>
